<svg version="1.1" xmlns="http://www.w3.org/2000/svg" viewBox="0 0 1938.5714285714284 745.714285714286" width="1938.5714285714284" height="745.714285714286" filter="invert(93%) hue-rotate(180deg)">
  <!-- svg-source:excalidraw -->
  
  <defs>
    <style>
      @font-face {
        font-family: "Virgil";
        src: url("https://excalidraw.com/Virgil.woff2");
      }
      @font-face {
        font-family: "Cascadia";
        src: url("https://excalidraw.com/Cascadia.woff2");
      }
    </style>
  </defs>
  <rect x="0" y="0" width="1938.5714285714284" height="745.714285714286" fill="#ffffff"></rect><g stroke-linecap="round" transform="translate(684.2857142857156 10) rotate(0 142.14285714285688 108.57142857142853)"><path d="M54.29 0 M54.29 0 C111.64 2.67, 177.03 -1.06, 230 0 M54.29 0 C101.77 1.92, 152.64 2.67, 230 0 M230 0 C263.41 -1.51, 285.92 15.77, 284.29 54.29 M230 0 C262.5 -0.32, 280.8 14.45, 284.29 54.29 M284.29 54.29 C281.32 91.45, 284.09 130.59, 284.29 162.86 M284.29 54.29 C286.2 82.92, 286.95 112.43, 284.29 162.86 M284.29 162.86 C284.2 199.18, 265.8 217.02, 230 217.14 M284.29 162.86 C280.46 201.07, 268.88 217.1, 230 217.14 M230 217.14 C182.55 214.96, 137.23 216.48, 54.29 217.14 M230 217.14 C190.11 220.58, 152.34 218.87, 54.29 217.14 M54.29 217.14 C19.29 216.16, -0.33 195.41, 0 162.86 M54.29 217.14 C21.1 213.67, 3 202.06, 0 162.86 M0 162.86 C-3.59 132.25, 0.56 97.53, 0 54.29 M0 162.86 C1.48 122.03, 1 81.28, 0 54.29 M0 54.29 C0.21 17.35, 17.05 -3.29, 54.29 0 M0 54.29 C2.16 20.68, 21.89 3.28, 54.29 0" stroke="#000000" stroke-width="4" fill="none"></path></g><g stroke-linecap="round" transform="translate(9.99999999999909 155.71428571428584) rotate(0 162.14285714285734 192.8571428571429)"><path d="M293.1 82.32 C303.71 94.06, 309.97 112.69, 315.43 129.78 C320.9 146.87, 325.48 166.44, 325.9 184.87 C326.31 203.3, 321.72 222.96, 317.94 240.36 C314.16 257.76, 311 273.91, 303.21 289.25 C295.42 304.6, 282.6 319.92, 271.21 332.43 C259.82 344.94, 248.39 355.64, 234.87 364.31 C221.34 372.98, 205.03 381.33, 190.04 384.46 C175.05 387.59, 160.02 385.08, 144.94 383.09 C129.86 381.09, 113.88 378.94, 99.56 372.48 C85.24 366.02, 70.78 355.58, 59.02 344.33 C47.26 333.07, 37.31 320.27, 29 304.96 C20.69 289.65, 13.88 270, 9.14 252.46 C4.4 234.92, 1.51 217.22, 0.53 199.72 C-0.44 182.21, -0.65 164.87, 3.27 147.43 C7.2 129.98, 16.29 110.66, 24.09 95.04 C31.89 79.42, 39.34 66, 50.06 53.71 C60.79 41.42, 74.7 29.68, 88.43 21.29 C102.16 12.9, 117.63 6.86, 132.46 3.37 C147.28 -0.13, 162.4 -1.21, 177.39 0.34 C192.37 1.88, 208.19 5.35, 222.39 12.63 C236.59 19.91, 246.56 22.33, 262.59 44 C278.61 65.68, 309.08 115.65, 318.52 142.69 C327.96 169.73, 321.9 205.72, 319.24 206.25 M283.43 66.73 C294.68 77.37, 301.23 93.34, 307.6 109.15 C313.96 124.95, 318.62 143.87, 321.61 161.57 C324.59 179.28, 327.6 197.01, 325.49 215.37 C323.38 233.73, 315.47 255.21, 308.93 271.76 C302.39 288.31, 296.02 301.19, 286.23 314.68 C276.43 328.17, 262.4 341.85, 250.18 352.71 C237.97 363.57, 227.02 374.08, 212.92 379.85 C198.83 385.63, 181.25 387.61, 165.64 387.36 C150.02 387.12, 134.17 383.68, 119.26 378.39 C104.34 373.09, 89.23 364.71, 76.15 355.57 C63.06 346.44, 50.9 336.77, 40.76 323.56 C30.63 310.36, 21.36 293.02, 15.35 276.36 C9.33 259.71, 7.26 242.04, 4.66 223.65 C2.07 205.26, -1.6 184.1, -0.21 166.02 C1.18 147.93, 6.68 131.31, 13.01 115.12 C19.35 98.94, 27.99 82.81, 37.78 68.91 C47.57 55.02, 59.23 41.96, 71.76 31.77 C84.28 21.57, 98.42 12.56, 112.93 7.73 C127.45 2.91, 143.87 3.05, 158.86 2.82 C173.84 2.6, 188.45 1.93, 202.84 6.39 C217.24 10.85, 231.77 20.16, 245.25 29.59 C258.74 39.02, 278.2 56.9, 283.76 62.97 C289.32 69.05, 280.33 63.32, 278.61 66.05" stroke="#000000" stroke-width="4" fill="none"></path></g><g transform="translate(102.85714285714312 313.5714285714287) rotate(0 41.5 17.5)"><text x="0" y="28" font-family="Cascadia, Segoe UI Emoji" font-size="28px" fill="#000000" text-anchor="start" style="white-space: pre;" direction="ltr">Users</text></g><g stroke-linecap="round" transform="translate(709.2857142857156 518.5714285714289) rotate(0 142.14285714285688 108.57142857142856)"><path d="M54.29 0 M54.29 0 C104.76 0.51, 160.61 3.16, 230 0 M54.29 0 C103.27 0.67, 153.44 3.96, 230 0 M230 0 C265.96 2.37, 282.16 18.71, 284.29 54.29 M230 0 C268.33 2.41, 282.39 20.33, 284.29 54.29 M284.29 54.29 C286.3 78.81, 288.24 99.86, 284.29 162.86 M284.29 54.29 C285.57 91.75, 284.22 128.2, 284.29 162.86 M284.29 162.86 C283.51 200.59, 266.95 218.83, 230 217.14 M284.29 162.86 C280.74 196.76, 265.92 216.09, 230 217.14 M230 217.14 C191.21 219.96, 145.91 217.29, 54.29 217.14 M230 217.14 C159.4 215.04, 93.58 215.22, 54.29 217.14 M54.29 217.14 C15.56 217.73, 0.63 201.29, 0 162.86 M54.29 217.14 C14.8 218.68, 1.02 200.81, 0 162.86 M0 162.86 C-0.21 133.29, -0.73 100.94, 0 54.29 M0 162.86 C4 123.64, 2.66 82.69, 0 54.29 M0 54.29 C1.86 15.23, 21.45 -3.14, 54.29 0 M0 54.29 C-1.13 15.18, 19.21 -0.74, 54.29 0" stroke="#000000" stroke-width="4" fill="none"></path></g><g stroke-linecap="round" transform="translate(1206.4285714285734 268.57142857142884) rotate(0 142.14285714285688 108.57142857142856)"><path d="M54.29 0 M54.29 0 C112.31 3.48, 173.12 0.96, 230 0 M54.29 0 C102.51 0.83, 155.56 2.47, 230 0 M230 0 C268.56 -2.13, 284.9 19.96, 284.29 54.29 M230 0 C268.61 -1.89, 286.52 14.46, 284.29 54.29 M284.29 54.29 C285.41 93.36, 282.45 127.31, 284.29 162.86 M284.29 54.29 C284.5 84.75, 284.27 113.93, 284.29 162.86 M284.29 162.86 C285.82 199.81, 267.88 214.06, 230 217.14 M284.29 162.86 C282 198.78, 265.14 214.15, 230 217.14 M230 217.14 C195.18 217.78, 155.99 223.05, 54.29 217.14 M230 217.14 C179.62 216.22, 130.73 213.21, 54.29 217.14 M54.29 217.14 C18.68 217.77, 2.25 196.18, 0 162.86 M54.29 217.14 C19.63 218.17, 1.76 197.83, 0 162.86 M0 162.86 C-1.42 124.78, -4.07 88.52, 0 54.29 M0 162.86 C0.75 140.99, -0.16 118.75, 0 54.29 M0 54.29 C-2.86 21.45, 14.96 -0.98, 54.29 0 M0 54.29 C-2.92 19.21, 17.35 4.14, 54.29 0" stroke="#000000" stroke-width="4" fill="none"></path></g><g transform="translate(790 98.857142857143) rotate(0 33.5 17.50000000000003)"><text x="0" y="28" font-family="Cascadia, Segoe UI Emoji" font-size="28px" fill="#000000" text-anchor="start" style="white-space: pre;" direction="ltr">VIEW</text></g><g transform="translate(1304.2857142857138 364.5714285714287) rotate(0 41.5 17.5)"><text x="0" y="28" font-family="Cascadia, Segoe UI Emoji" font-size="28px" fill="#000000" text-anchor="start" style="white-space: pre;" direction="ltr">MODEL</text></g><g stroke-linecap="round" transform="translate(1725.7142857142862 145.71428571428584) rotate(0 101.4285714285711 257.14285714285717)"><path d="M50.71 0 M50.71 0 C82.92 -1, 112.9 -2.32, 152.14 0 M50.71 0 C75.82 -2.7, 100.33 -0.45, 152.14 0 M152.14 0 C185.96 2.77, 206.83 15.42, 202.86 50.71 M152.14 0 C185.77 -4.55, 204.28 16.94, 202.86 50.71 M202.86 50.71 C207.48 207.93, 206.78 367.46, 202.86 463.57 M202.86 50.71 C201.65 210.25, 202.24 370.79, 202.86 463.57 M202.86 463.57 C204.15 494.67, 184.69 512.15, 152.14 514.29 M202.86 463.57 C202.88 497.35, 186.08 515.43, 152.14 514.29 M152.14 514.29 C132.41 513.05, 111.78 513.92, 50.71 514.29 M152.14 514.29 C125.4 515.35, 98.19 514.5, 50.71 514.29 M50.71 514.29 C15.23 514.71, 3.02 493.41, 0 463.57 M50.71 514.29 C19.71 517.33, -1.7 500.58, 0 463.57 M0 463.57 C4.3 375.38, 2.84 287.22, 0 50.71 M0 463.57 C1.36 381.21, 2.12 296.82, 0 50.71 M0 50.71 C-3.04 14.79, 13.4 -1.53, 50.71 0 M0 50.71 C-1.78 13.94, 18.51 -1.49, 50.71 0" stroke="#000000" stroke-width="4" fill="none"></path></g><g transform="translate(1768.5714285714284 368.85714285714295) rotate(0 66 17.5)"><text x="0" y="28" font-family="Cascadia, Segoe UI Emoji" font-size="28px" fill="#000000" text-anchor="start" style="white-space: pre;" direction="ltr">DATABASE</text></g><g transform="translate(780.0000000000009 610.2857142857144) rotate(0 82.5 17.5)"><text x="0" y="28" font-family="Cascadia, Segoe UI Emoji" font-size="28px" fill="#000000" text-anchor="start" style="white-space: pre;" direction="ltr">CONTROLLER</text></g><g stroke-linecap="round"><g transform="translate(671.4285714285716 158.57142857142873) rotate(0 -167.69211177547595 60.30280180174327)"><path d="M1.14 -1.48 C-54.68 18.95, -278.75 101.49, -335.29 122.08 M-1.69 3.89 C-57.68 23.46, -280.07 97.16, -336.52 117.43" stroke="#000000" stroke-width="4" fill="none"></path></g><g transform="translate(671.4285714285716 158.57142857142873) rotate(0 -167.69211177547595 60.30280180174327)"><path d="M-315.31 101.21 C-319 102.83, -325.72 108.44, -333.18 117.57 M-313.53 99.1 C-320.98 102.39, -327.36 108.47, -334.67 117.24" stroke="#000000" stroke-width="4" fill="none"></path></g><g transform="translate(671.4285714285716 158.57142857142873) rotate(0 -167.69211177547595 60.30280180174327)"><path d="M-308.64 120.62 C-314.18 116.73, -322.81 116.78, -333.18 117.57 M-306.87 118.51 C-315.8 116.78, -323.91 117.85, -334.67 117.24" stroke="#000000" stroke-width="4" fill="none"></path></g></g><g stroke-linecap="round"><g transform="translate(310 458.5714285714287) rotate(0 191.13550987813096 84.37827299648632)"><path d="M-0.64 2.37 C63.53 30.46, 319.06 140.31, 382.91 167.57 M4.21 1.19 C68.33 28.58, 318.64 135.57, 381.48 163.56" stroke="#000000" stroke-width="4" fill="none"></path></g><g transform="translate(310 458.5714285714287) rotate(0 191.13550987813096 84.37827299648632)"><path d="M354.92 163.84 C360.9 163.78, 365.31 159.79, 377.57 167.33 M349.93 162.16 C361.07 164.26, 370.96 164.07, 383.32 164.26" stroke="#000000" stroke-width="4" fill="none"></path></g><g transform="translate(310 458.5714285714287) rotate(0 191.13550987813096 84.37827299648632)"><path d="M363.11 145.02 C367.12 149.16, 369.67 149.4, 377.57 167.33 M358.12 143.34 C366.82 151.5, 374.06 157.37, 383.32 164.26" stroke="#000000" stroke-width="4" fill="none"></path></g></g><g stroke-linecap="round"><g transform="translate(1005.7142857142862 635.7142857142858) rotate(0 142.48337624558917 -69.49257576678474)"><path d="M1.43 -1.56 C49.47 -24.21, 238.88 -115.56, 286.21 -138.03 M-1.24 3.76 C46.66 -19.6, 236.79 -118.66, 284.24 -142.75" stroke="#000000" stroke-width="4" fill="none"></path></g><g transform="translate(1005.7142857142862 635.7142857142858) rotate(0 142.48337624558917 -69.49257576678474)"><path d="M261.64 -120.02 C269.59 -126.37, 276.5 -131.81, 282.87 -141.5 M262.05 -119.06 C272 -125.92, 277.47 -133.71, 285.02 -144.36" stroke="#000000" stroke-width="4" fill="none"></path></g><g transform="translate(1005.7142857142862 635.7142857142858) rotate(0 142.48337624558917 -69.49257576678474)"><path d="M252.25 -138.26 C262.04 -140.59, 271.08 -141.9, 282.87 -141.5 M252.66 -137.31 C265.32 -138.18, 273.8 -140.12, 285.02 -144.36" stroke="#000000" stroke-width="4" fill="none"></path></g></g><g stroke-linecap="round"><g transform="translate(1497.1428571428569 418.5714285714287) rotate(0 104.53484194816201 -0.2728916894644726)"><path d="M-0.75 2.04 C33.86 1.98, 175.2 -2.49, 209.82 -2.59 M4.04 0.68 C38.33 1.07, 175.53 0.29, 209.03 -0.36" stroke="#000000" stroke-width="4" fill="none"></path></g><g transform="translate(1497.1428571428569 418.5714285714287) rotate(0 104.53484194816201 -0.2728916894644726)"><path d="M183.87 14.03 C188 6.12, 204.37 5.22, 205.11 2.39 M182.78 10.14 C192.53 4.77, 203.5 2.96, 207.51 -0.32" stroke="#000000" stroke-width="4" fill="none"></path></g><g transform="translate(1497.1428571428569 418.5714285714287) rotate(0 104.53484194816201 -0.2728916894644726)"><path d="M183.64 -6.49 C187.53 -6.68, 203.99 0.16, 205.11 2.39 M182.55 -10.38 C192.6 -7.9, 203.66 -1.88, 207.51 -0.32" stroke="#000000" stroke-width="4" fill="none"></path></g></g><g stroke-linecap="round"><g transform="translate(1715.7142857142862 375.71428571428584) rotate(0 -100.67091371255265 3.284181372693638)"><path d="M-0.77 2.1 C-34.51 2.38, -169.89 2.28, -203.52 2.92 M4.01 0.77 C-29.94 1.3, -170.78 5.72, -205.35 5.8" stroke="#000000" stroke-width="4" fill="none"></path></g><g transform="translate(1715.7142857142862 375.71428571428584) rotate(0 -100.67091371255265 3.284181372693638)"><path d="M-174.36 -3.9 C-186.52 0.15, -189.53 -3.48, -202.71 7.44 M-177.75 -5.27 C-188.51 -0.57, -199.13 3.86, -206.41 4.99" stroke="#000000" stroke-width="4" fill="none"></path></g><g transform="translate(1715.7142857142862 375.71428571428584) rotate(0 -100.67091371255265 3.284181372693638)"><path d="M-173.97 16.62 C-186.41 15.31, -189.52 6.33, -202.71 7.44 M-177.36 15.25 C-188.01 11.95, -198.78 8.38, -206.41 4.99" stroke="#000000" stroke-width="4" fill="none"></path></g></g><g stroke-linecap="round"><g transform="translate(1281.4285714285716 261.4285714285715) rotate(0 -146.14493458943753 -61.47071135496452)"><path d="M-1.2 2.34 C-50.15 -18.47, -245.31 -104.36, -293.71 -125.28 M3.35 1.14 C-45.92 -19.11, -246.43 -100.01, -295.64 -121.42" stroke="#000000" stroke-width="4" fill="none"></path></g><g transform="translate(1281.4285714285716 261.4285714285715) rotate(0 -146.14493458943753 -61.47071135496452)"><path d="M-262.33 -119.22 C-274.02 -116.85, -279.96 -124.54, -298.85 -124.95 M-267.12 -120.93 C-278.61 -119.49, -286.5 -121.11, -296.53 -120.14" stroke="#000000" stroke-width="4" fill="none"></path></g><g transform="translate(1281.4285714285716 261.4285714285715) rotate(0 -146.14493458943753 -61.47071135496452)"><path d="M-270.23 -100.28 C-279.49 -103.52, -283.07 -116.87, -298.85 -124.95 M-275.02 -101.99 C-283.62 -107.7, -288.57 -116.38, -296.53 -120.14" stroke="#000000" stroke-width="4" fill="none"></path></g></g></svg>